<?xml version="1.0" encoding="UTF-8"?>
<svg id="Layer_1" data-name="Layer 1" xmlns="http://www.w3.org/2000/svg" viewBox="0 0 450 424">
  <defs>
    <style>
      .cls-1 {
        fill: #111;
        stroke-width: 0px;
      }
    </style>
  </defs>
  <path class="cls-1" d="m350.11,287.89c-16.16-14.2-36.72-22.03-50.44-55.82-13.71-33.78-54.84-44.55-74.92-44.55-57.78,0-70.51,39.17-92.55,70.99-22.03,31.82-64.15,38.68-64.15,94.49s54.35,70.99,89.61,70.99,45.54-12.73,69.53-12.73,23.99,12.73,68.06,12.73c68.06,0,87.65-48.96,87.65-72.95s-16.65-48.96-32.81-63.16Z"/>
  <path class="cls-1" d="m302.61,181.15c20.57,0,61.7-20.56,61.7-80.3S300.65,0,280.58,0c-26.44,0-38.68,41.62-38.68,101.84s40.15,79.32,60.72,79.32Z"/>
  <path class="cls-1" d="m407.4,129.75c-39.66,0-71.49,74.42-71.49,100.37s19.59,57.28,43.09,57.28,71-18.61,71-76.38-31.83-81.27-42.6-81.27Z"/>
  <path class="cls-1" d="m143.96,181.15c20.08,0,65.61-12.73,65.61-82.25S186.56,0,170.89,0c-29.38,0-83.73,41.13-83.73,99.39s36.72,81.76,56.8,81.76Z"/>
  <path class="cls-1" d="m113.6,227.67c0-51.9-43.09-97.92-70.51-97.92-12.73,0-43.09,15.18-43.09,84.7s64.15,72.95,71.98,72.95,41.62-7.83,41.62-59.73Z"/>
</svg>