<svg width="40" height="60" viewBox="0 0 40 60" fill="none" xmlns="http://www.w3.org/2000/svg">
<path fill-rule="evenodd" clip-rule="evenodd" d="M0 10H40V50H0V10ZM30.5778 43.5328C28.7238 43.5328 27.6755 42.5658 26.8698 41.2503L23.8152 43.0249C24.9187 45.2052 27.1739 46.8687 30.6647 46.8687C34.2349 46.8687 36.8933 45.0147 36.8933 41.6306C36.8933 38.4915 35.0901 37.0953 31.8965 35.7258L30.9568 35.3233C29.3441 34.6249 28.6457 34.1684 28.6457 33.0407C28.6457 32.1284 29.3435 31.4299 30.4444 31.4299C31.5238 31.4299 32.219 31.8852 32.8635 33.0407L35.7905 31.1614C34.5524 28.9836 32.8343 28.1519 30.4444 28.1519C27.0876 28.1519 24.9397 30.2979 24.9397 33.1169C24.9397 36.1772 26.7416 37.6249 29.4539 38.7804L30.3936 39.1836C32.1079 39.9334 33.1301 40.3899 33.1301 41.6788C33.1301 42.7544 32.1352 43.5328 30.5778 43.5328ZM16.0108 43.5093C14.7193 43.5093 14.1822 42.6236 13.5917 41.576L10.532 43.4284C11.4184 45.3042 13.1613 46.8617 16.1708 46.8617C19.5016 46.8617 21.7835 45.0903 21.7835 41.1982V28.3665H18.0247V41.1474C18.0247 43.0261 17.2457 43.5093 16.0108 43.5093Z" fill="white"/>
</svg>
