<svg width="36" height="60" viewBox="0 0 36 60" fill="none" xmlns="http://www.w3.org/2000/svg">
<g clip-path="url(#clip0_3_129)">
<path d="M3.30078 0H5.54687V2.22656H7.61719V0H9.86328V6.73828H7.61719V4.49219H5.56641V6.73828H3.30078M12.832 2.24609H10.8496V0H17.0703V2.24609H15.0781V6.73828H12.832M18.0566 0H20.4102L21.8555 2.37305L23.3008 0H25.6543V6.73828H23.4082V3.39844L21.8359 5.82031L20.2637 3.39844V6.73828H18.0566M26.7676 0H29.0137V4.51172H32.1973V6.73828H26.7676" fill="white"/>
<path fill-rule="evenodd" clip-rule="evenodd" d="M3.22266 45.9961L0 9.82422H35.4297L32.207 45.9766L17.6855 50L3.22266 45.9961ZM17.6953 17.2168H6.58203L7.79297 30.6152H17.6953V30.625L17.7148 30.625V37.7096L17.7051 37.7122L12.7539 36.3867L12.4414 32.8418H7.98828L8.61328 39.8047L17.7148 42.3437L17.7148 46.9238L29.4336 43.6523L32.1973 12.793H17.7148L17.7148 17.2168H17.6953ZM17.7148 21.6504L17.6953 21.6504L11.4453 21.6504L11.8555 26.1914H17.6953H17.7148V21.6504Z" fill="white"/>
<path opacity="0.85" fill-rule="evenodd" clip-rule="evenodd" d="M17.7148 42.3188L17.7148 46.9238L29.4336 43.6523L32.1973 12.793H17.7148L17.7148 17.2168H28.8086L28.3984 21.6504L17.7148 21.6504V26.1914L27.998 26.1914L26.7773 39.8047L17.7148 42.3188ZM17.7148 37.7096L22.6465 36.3867L23.1641 30.625H17.7148V37.7096Z" fill="white"/>
</g>
<defs>
<clipPath id="clip0_3_129">
<rect width="36" height="60" fill="white"/>
</clipPath>
</defs>
</svg>
