<svg width="36" height="60" viewBox="0 0 36 60" fill="none" xmlns="http://www.w3.org/2000/svg">
<rect width="36" height="60" fill="white"/>
<path d="M35.4232 9.82617L32.1961 45.9784L17.6899 50L3.22373 45.9841L0 9.82617H35.4232Z" fill="#264DE4"/>
<path d="M29.4333 43.6765L32.1911 12.7827H17.7116V46.9262L29.4333 43.6765Z" fill="#2965F1"/>
<path d="M7.39032 26.1931L7.78778 30.6277H17.7116V26.1931H7.39032Z" fill="#EBEBEB"/>
<path d="M17.7116 17.2173H17.6963H6.59167L6.9948 21.652H17.7116V17.2173Z" fill="#EBEBEB"/>
<path d="M17.7116 42.3241V37.7102L17.6922 37.7154L12.7533 36.3818L12.4376 32.845H10.0377H7.98596L8.60725 39.808L17.6912 42.3297L17.7116 42.3241Z" fill="#EBEBEB"/>
<path d="M8.33661 0H13.7077V2.24609H10.5827V4.49219H13.7077V6.73828H8.33661V0Z" fill="black"/>
<path d="M14.7819 0H20.153V1.95312H17.028V2.34375H20.153V6.83594H14.7819V4.78516H17.9069V4.39453H14.7819V0Z" fill="black"/>
<path d="M21.2272 0H26.5983V1.95312H23.4733V2.34375H26.5983V6.83594H21.2272V4.78516H24.3522V4.39453H21.2272V0Z" fill="black"/>
<path d="M23.157 30.6276L22.6423 36.379L17.6963 37.714V42.3276L26.7875 39.808L26.8542 39.0588L27.8963 27.3839L28.0045 26.1931L28.8051 17.2173H17.6963V21.652H23.9451L23.5416 26.1931H17.6963V30.6276H23.157Z" fill="white"/>
</svg>
