<svg width="36" height="60" viewBox="0 0 36 60" fill="none" xmlns="http://www.w3.org/2000/svg">
<path fill-rule="evenodd" clip-rule="evenodd" d="M35.4232 9.82617L32.1961 45.9784L17.6899 50L3.22373 45.9841L0 9.82617H35.4232ZM17.6963 17.2173H17.6963H17.7116L17.7116 12.7827H32.1911L29.4333 43.6765L17.7116 46.9262V42.3241L17.6912 42.3297L8.60725 39.808L7.98596 32.845H10.0377H12.4376L12.7533 36.3818L17.6922 37.7154L17.6963 37.7143V37.714L17.7116 37.7098V30.6277H7.78778L7.39032 26.1931H17.6963V26.1931H17.7116L17.7116 21.652H17.6963H6.9948L6.59167 17.2173H17.6963Z" fill="white"/>
<path opacity="0.85" fill-rule="evenodd" clip-rule="evenodd" d="M32.1911 12.7827L29.4333 43.6765L17.7116 46.9262V42.3241L17.7117 42.3241V42.3234L26.7875 39.808L26.8542 39.0588L27.8963 27.3839L28.0045 26.1931L28.8051 17.2173H17.7116V12.7827H32.1911ZM17.7116 21.652V26.1931H23.5416L23.9451 21.652H17.7116ZM17.7116 37.7098L22.6423 36.379L23.157 30.6276H17.7116V30.6277V37.7098Z" fill="white"/>
<path d="M8.33661 0H13.7077V2.24609H10.5827V4.49219H13.7077V6.73828H8.33661V0Z" fill="white"/>
<path d="M14.7819 0H20.153V1.95312H17.028V2.34375H20.153V6.83594H14.7819V4.78516H17.9069V4.39453H14.7819V0Z" fill="white"/>
<path d="M21.2272 0H26.5983V1.95312H23.4733V2.34375H26.5983V6.83594H21.2272V4.78516H24.3522V4.39453H21.2272V0Z" fill="white"/>
</svg>
