<svg width="40" height="60" viewBox="0 0 40 60" fill="none" xmlns="http://www.w3.org/2000/svg">
<rect width="40" height="60" fill="white"/>
<path d="M40 10H0V50H40V10Z" fill="#F7DF1E"/>
<path d="M26.8698 41.2503C27.6755 42.5658 28.7238 43.5328 30.5778 43.5328C32.1352 43.5328 33.1301 42.7544 33.1301 41.6788C33.1301 40.3899 32.1079 39.9334 30.3936 39.1836L29.4539 38.7804C26.7416 37.6249 24.9397 36.1773 24.9397 33.1169C24.9397 30.2979 27.0876 28.1519 30.4444 28.1519C32.8343 28.1519 34.5524 28.9836 35.7905 31.1614L32.8635 33.0407C32.219 31.8852 31.5238 31.4299 30.4444 31.4299C29.3435 31.4299 28.6457 32.1284 28.6457 33.0407C28.6457 34.1684 29.3441 34.6249 30.9568 35.3233L31.8965 35.7258C35.0901 37.0953 36.8933 38.4915 36.8933 41.6306C36.8933 45.0147 34.2349 46.8687 30.6647 46.8687C27.1739 46.8687 24.9187 45.2052 23.8152 43.0249L26.8698 41.2503ZM13.5917 41.576C14.1822 42.6236 14.7193 43.5093 16.0108 43.5093C17.2457 43.5093 18.0247 43.0261 18.0247 41.1474V28.3665H21.7835V41.1982C21.7835 45.0903 19.5016 46.8617 16.1708 46.8617C13.1612 46.8617 11.4184 45.3042 10.532 43.4284L13.5917 41.576Z" fill="black"/>
</svg>
