<svg width="41" height="60" viewBox="0 0 41 60" fill="none" xmlns="http://www.w3.org/2000/svg">
<rect width="41" height="60" fill="white"/>
<path d="M20.5419 10C9.15776 10 0 19.1673 0 30.5013C0 39.5852 5.88113 47.2524 14.0307 49.9609C15.0389 50.1693 15.417 49.5025 15.417 48.9608C15.417 48.5025 15.3749 46.8357 15.3749 45.1689C9.66185 46.3773 8.48563 42.7104 8.48563 42.7104C7.56145 40.3353 6.21719 39.7102 6.21719 39.7102C4.36884 38.4602 6.34322 38.4602 6.34322 38.4602C8.40161 38.5852 9.49382 40.5853 9.49382 40.5853C11.3422 43.7105 14.2827 42.8354 15.459 42.2937C15.627 40.9603 16.1731 40.0436 16.7612 39.5436C12.2243 39.0852 7.43542 37.2934 7.43542 29.4179C7.43542 27.1678 8.23358 25.3343 9.53583 23.9176C9.32579 23.4175 8.61165 21.2924 9.74587 18.5005C9.74587 18.5005 11.4682 17.9588 15.3749 20.6257C17.0553 20.1673 18.7776 19.959 20.4999 19.959C22.2223 19.959 23.9866 20.209 25.6249 20.6257C29.5317 17.9588 31.254 18.5005 31.254 18.5005C32.3882 21.3341 31.6741 23.4175 31.464 23.9176C32.8083 25.3343 33.5644 27.1678 33.5644 29.4179C33.5644 37.2934 28.7755 39.0435 24.1966 39.5436C24.9528 40.1686 25.5829 41.4187 25.5829 43.3355C25.5829 46.0857 25.5409 48.2941 25.5409 48.9608C25.5409 49.5025 25.919 50.1693 26.9272 49.9609C35.1187 47.2524 40.9999 39.5852 40.9999 30.5013C41.0419 19.1673 31.8421 10 20.5419 10Z" fill="black"/>
</svg>
