<?xml version="1.0" encoding="UTF-8"?>
<svg id="Layer_1" data-name="Layer 1" xmlns="http://www.w3.org/2000/svg" viewBox="0 0 1000 290">
  <defs>
    <style>
      .cls-1 {
        fill: #111;
        stroke-width: 0px;
      }
    </style>
  </defs>
  <path class="cls-1" d="m11.24,245.77c.67.12,2.23.22,3.66.7,5.19,1.77,10.45,3.1,15.97,2.92,7.38-.24,14.8,9.6,8.98,17.15-2.99,3.87-4.3,8.37-4.64,13.31-.5,7.19-6.25,11.37-12.86,9.85-2.56-.59-4.29-2.1-5.28-4.41-1.2-2.8-2.27-5.67-3.33-8.53-1.83-4.92-4.37-9.28-8.78-12.42-3.77-2.69-5.92-6.13-4.54-11.07,1.49-5.33,4.43-7.63,10.82-7.49Z"/>
  <path class="cls-1" d="m278.29,68.22c-4.03-.03-6.98-1.89-8.35-5.71-1.12-3.13-1.9-6.39-2.79-9.6-1.32-4.8-3.59-8.97-7.44-12.27-3.7-3.18-4.94-7.08-3.11-11.82,1.86-4.82,6.15-7.22,11.21-5.97,2.03.5,4.03,1.2,5.94,2.03,3.88,1.69,7.85,2.86,12.08,3.27,4.54.44,8.18,2.38,10.14,6.82,1.64,3.72,1.7,7.28-1.02,10.46-3.51,4.1-5.6,8.7-6.51,14.05-.92,5.45-5.16,8.77-10.16,8.74Z"/>
  <path class="cls-1" d="m490.8,36.25c.26-7.74,5.73-11.71,13.28-9.65,4.05,1.11,7.7,3.31,11.85,4.21,2.8.61,5.68.63,8.44,1.52,6.78,2.19,9.88,10.57,5.6,16.22-3.3,4.35-5.77,8.83-6.63,14.33-.66,4.19-3.19,7.28-7.62,8.41-4.87,1.24-9.38-.99-10.99-5.72-.95-2.79-1.59-5.7-2.37-8.55-1.38-5.07-3.64-9.59-7.75-13.09-2.3-1.96-3.93-4.44-3.8-7.69Z"/>
  <path class="cls-1" d="m215.7,177.1c-4.43-.03-7.34-2.22-8.64-6.55-1.09-3.65-2.07-7.34-3.2-10.99-1.21-3.92-3.4-7.21-6.51-9.93-2.25-1.98-4.1-4.19-4.12-7.52-.05-7.4,5.23-11.84,12.45-10.21,1.85.42,3.66,1.11,5.41,1.86,3.8,1.64,7.69,2.8,11.83,3.26,3.77.42,7.3,1.44,9.49,5.06,3.04,5.03,2.96,8.52-.73,13.11-2.81,3.49-4.71,7.26-5.44,11.79-1.06,6.56-5.11,10.17-10.54,10.13Z"/>
  <path class="cls-1" d="m398.27,140.59c-4.31.04-7.23-1.95-8.62-6.15-.87-2.62-1.51-5.32-2.21-8-1.38-5.29-3.79-9.9-8-13.59-3.44-3.01-4.74-6.75-2.99-11.34,1.89-4.95,5.5-7.19,10.74-6.36,2.29.36,4.42,1.2,6.51,2.14,3.69,1.65,7.49,2.78,11.54,3.16,4.88.45,8.74,2.47,10.77,7.29,1.55,3.7,1.36,7.14-1.26,10.19-3.39,3.95-5.36,8.41-6.35,13.54-1.18,6.05-4.89,9.07-10.14,9.12Z"/>
  <path class="cls-1" d="m604.12,107.03c2.09-.2,4.28.61,6.33,1.59,4.72,2.24,9.66,3.69,14.83,4.1,7.67.61,13.72,11.08,7.29,17.88-3.39,3.59-5.08,7.96-5.84,12.82-.48,3.08-1.92,5.83-4.7,7.56-5.8,3.61-12.53.99-14.5-5.65-.84-2.84-1.51-5.72-2.32-8.56-1.31-4.6-3.55-8.61-7.24-11.78-3.59-3.09-4.97-6.87-3.23-11.55,1.63-4.4,4.36-6.41,9.38-6.41Z"/>
  <path class="cls-1" d="m939.86,23.25c2.05-.25,4.31.65,6.56,1.41,4.39,1.49,8.86,2.39,13.49,2.22,7.8-.29,15.25,9.69,9.18,17.37-2.84,3.59-4.05,7.83-4.41,12.48-.54,7.02-4.99,11.09-10.98,10.72-3.3-.21-5.88-1.56-7.26-4.72-.69-1.57-1.44-3.13-1.94-4.77-2.1-6.8-5.39-12.64-11.23-17.17-5.9-4.58-4.54-14.17,1.96-16.86,1.36-.56,2.78-.65,4.63-.68Z"/>
  <path class="cls-1" d="m94.03,146.63c.08,1.5-.45,3.17-1.47,4.57-3.39,4.61-4.94,9.78-5.46,15.42-.41,4.38-2.9,7.33-7.19,8.7-4.55,1.44-9-.38-10.92-4.78-1.56-3.58-2.75-7.32-4.28-10.92-1.67-3.93-4.32-7.11-7.78-9.71-4.51-3.39-5.53-6.75-3.99-11.75,1.44-4.67,4.82-7.03,9.71-6.67,1.33.1,2.7.24,3.94.69,5.63,2.03,11.44,2.76,17.38,3.23,5.72.45,10.1,5.5,10.06,11.23Z"/>
  <path class="cls-1" d="m764.1,72.68c-3.49-.16-6.53-1.39-7.99-5.1-1.09-2.75-2.13-5.52-3.16-8.28-1.88-5.01-4.59-9.37-9.08-12.54-3.79-2.67-5.32-6.25-4.08-10.97,1.43-5.45,5.63-8.61,11.13-7.23,7.22,1.82,14.43,3.47,21.88,4.08,4.92.4,11.06,9.08,6.98,15.07-3.24,4.76-5.01,9.87-5.63,15.65-.64,5.88-4.72,9.27-10.05,9.33Z"/>
  <path class="cls-1" d="m851.36,125.3c1.44-.04,2.87.07,4.24.54,5.35,1.83,10.78,3.09,16.51,3.16,5.53.07,8.9,3.25,10.77,8.34.95,2.6.59,4.97-.84,7.1-3.2,4.77-5.16,9.79-5.64,15.64-.48,5.9-4.77,9.37-10.1,9.32-3.77-.04-6.67-1.55-8.14-5.18-1.04-2.56-1.95-5.18-2.92-7.77-1.91-5.1-4.59-9.59-9.16-12.84-3.52-2.51-5.26-5.84-4.27-10.41,1.16-5.33,4.08-7.9,9.56-7.91Z"/>
  <path class="cls-1" d="m301.23,27.96c-6.23.02-9.05-4.56-5.98-10.04,3.17-5.65,8.17-8.82,14.63-9.14,6.05-.3,8.9,4.43,6.19,9.8-2.56,5.08-9.33,9.36-14.84,9.38Z"/>
  <path class="cls-1" d="m537.08,31.37c-7.06,0-9.97-4.61-7.04-9.86,3.25-5.82,8.36-9.12,15.05-9.34,5.78-.19,8.6,4.26,6.05,9.43-3.04,6.17-8.45,8.99-14.06,9.77Z"/>
  <path class="cls-1" d="m239.41,136.87c-6.76-.11-9.35-4.01-7.2-9.28,2.2-5.41,10.1-10.33,15.9-9.91,5.41.4,7.94,4.71,5.42,9.52-3.18,6.07-8.44,9.05-14.11,9.67Z"/>
  <path class="cls-1" d="m896.1,143.8c-3.25-.18-6.07-.78-7.52-3.74-1.42-2.9-.11-5.44,1.66-7.66,3.7-4.62,8.73-6.71,14.54-6.74,2.87-.01,5.54.99,6.8,3.91,1.17,2.7,0,5.09-1.62,7.17-3.56,4.59-8.47,6.62-13.87,7.06Z"/>
  <path class="cls-1" d="m982.22,5.21c5.16,0,7.91,3.79,6.27,8.66-2.01,5.99-8.93,11.19-15.21,11.41-4.74.17-7.53-3.21-6.45-7.8,1.46-6.17,9.11-12.27,15.38-12.27Z"/>
  <path class="cls-1" d="m983.82,41.75c-3.03-.03-5.86-.73-7.18-3.72-1.3-2.94-.09-5.59,1.86-7.91,4.31-5.16,12.24-7.8,17.45-5.84,3.52,1.32,4.87,4.28,3.56,7.79-2,5.34-9.2,9.79-15.69,9.69Z"/>
  <path class="cls-1" d="m782.84,30.42c-4.9,0-7.5-3.46-6.16-8.2,1.77-6.27,9.26-11.84,15.76-11.73,4.43.08,7.05,3.4,6.05,7.66-1.5,6.34-9.06,12.27-15.65,12.27Z"/>
  <path class="cls-1" d="m647.2,93.2c7.19.15,9.86,4.25,7.13,9.51-3.15,6.08-8.41,9.34-15.25,9.52-5.89.16-8.67-4.6-5.75-9.78,3.27-5.83,8.39-8.94,13.87-9.25Z"/>
  <path class="cls-1" d="m61.75,246.07c3.97.01,6.82.72,8.26,3.81,1.41,3.01.09,5.65-1.86,7.86-3.78,4.28-8.56,6.61-14.35,6.46-2.79-.07-5.32-.99-6.61-3.72-1.25-2.66-.21-5.11,1.41-7.19,3.52-4.54,8.26-6.89,13.16-7.21Z"/>
  <path class="cls-1" d="m310.85,45.37c-1.17-.12-2.33-.11-3.44-.37-5.08-1.18-6.84-5.78-3.92-10.1,3.64-5.38,12.84-8.45,18.57-6.19,4.27,1.69,5.62,5.3,3.12,9.16-3.33,5.14-8.45,7.11-14.33,7.5Z"/>
  <path class="cls-1" d="m800.64,28.92c4.31-.01,7.09.49,8.57,3.52,1.49,3.05.13,5.61-1.76,7.87-3.63,4.35-8.43,6.51-14.05,6.6-2.86.04-5.64-.72-6.98-3.59-1.26-2.7-.36-5.25,1.4-7.48,3.59-4.56,8.38-6.75,12.82-6.92Z"/>
  <path class="cls-1" d="m545.07,48.68c-.36-.03-1.33-.02-2.26-.19-5.67-1.03-7.72-6.32-3.98-10.71,4.27-5.02,9.88-7.1,16.38-6.19,6.13.86,8.03,6.19,4.11,10.95-3.09,3.75-8.46,6.16-14.25,6.14Z"/>
  <path class="cls-1" d="m96.11,133.54c-5.51.05-8.35-3.9-6.15-8.99,2.74-6.34,7.62-10.23,14.6-10.86,5.53-.5,8.36,3.42,6.55,8.65-2.04,5.91-9.05,11.14-15,11.19Z"/>
  <path class="cls-1" d="m900.82,113.39c-.09,5.07-5.7,11.45-11.67,13.21-3.42,1.01-6.85,1.54-9.49-1.64-1.91-2.3-1.28-6.57,1.31-10.09,2.89-3.94,6.75-6.42,11.52-7.43,4.85-1.03,8.41,1.55,8.33,5.94Z"/>
  <path class="cls-1" d="m43.61,247.74c-4.73-.02-7.16-3.06-6.17-7.73,1.32-6.26,9.51-12.55,15.91-12.23,4.82.24,7.18,3.8,5.72,8.6-1.79,5.87-9.29,11.38-15.45,11.35Z"/>
  <path class="cls-1" d="m106.72,149.94c-3.03.07-5.82-.57-7.26-3.52-1.5-3.09-.16-5.82,1.88-8.11,4.2-4.7,9.45-7.06,15.82-6.12,5.24.77,7.15,5.31,4.3,9.81-3,4.74-8.91,7.93-14.74,7.95Z"/>
  <path class="cls-1" d="m247.98,154.19c-1.44-.02-2.86-.15-4.23-.66-4.11-1.53-5.47-5.21-3.32-9.01,3.15-5.56,12.54-9.17,18.58-7.15,4.6,1.54,6,5.36,3.5,9.54-2.46,4.11-8.98,7.37-14.54,7.28Z"/>
  <path class="cls-1" d="m420.99,100.31c-6.04,0-8.94-4.6-6.01-9.86,3.08-5.53,8-8.59,14.28-9.26,2.66-.28,5.26.32,6.77,2.8,1.55,2.54.95,5.14-.45,7.59-2.86,4.99-9.15,8.74-14.58,8.73Z"/>
  <path class="cls-1" d="m429.88,117.68c-.49-.06-1.75-.07-2.95-.36-4.42-1.1-6.28-5.14-4.21-9.05,3.1-5.87,12.98-9.56,19.2-7.18,4.2,1.61,5.46,5.35,3.12,9.23-2.59,4.3-8.56,7.35-15.16,7.35Z"/>
  <path class="cls-1" d="m648.5,129.83c-.88-.16-2.12-.27-3.29-.62-4.99-1.47-6.44-5.72-3.46-10.04,3.56-5.16,12.51-8.17,18.43-6.19,4.58,1.53,5.86,6.13,2.69,10.11-3.56,4.47-8.45,6.3-14.36,6.74Z"/>
  <path class="cls-1" d="m53.1,283.72c-3.75,0-7.22-.87-9.96-3.59-2.72-2.7-2.51-5.98.42-8.45,4.79-4.04,14.67-3.64,19.12.77,2.51,2.49,2.53,5.62-.07,8.05-2.67,2.5-5.97,3.25-9.52,3.21Z"/>
  <path class="cls-1" d="m515.12,24.41c-3.67-.08-5.85-2.42-5.66-6.09.32-6.53,7.74-13.49,14.24-13.38,3.25.06,5.34,2.12,5.45,5.37.21,6.15-7.83,14.23-14.03,14.09Z"/>
  <path class="cls-1" d="m983.25,61.16c-4.28.11-7.53-.86-10.28-3.14-3.2-2.64-3.16-6.06,0-8.77,4.74-4.08,14.7-3.73,19.12.66,2.59,2.57,2.5,5.81-.21,8.26-2.15,1.95-5.28,2.95-8.63,2.98Z"/>
  <path class="cls-1" d="m893.67,163.16c-2.68-.12-6.03-.78-8.76-3.16-3.21-2.79-3.1-6.43.2-9.02,4.6-3.6,13.88-3.41,18.3.36,3.56,3.04,3.37,6.89-.47,9.54-2.05,1.42-5.39,2.32-9.27,2.28Z"/>
  <path class="cls-1" d="m632.38,91.56c-.11,6.45-7.88,13.88-14.29,13.67-3.46-.11-5.43-2.2-5.38-5.7.1-6.3,7.65-13.75,13.96-13.77,3.41,0,5.76,2.38,5.7,5.8Z"/>
  <path class="cls-1" d="m427.6,136.98c-3.81-.06-7.4-.92-10.33-3.5-3.8-3.34-3.23-7.59,1.23-9.98,4.96-2.65,13.03-1.58,17.18,2.29,3.33,3.1,2.94,7.14-.93,9.54-2.19,1.35-4.62,1.7-7.15,1.65Z"/>
  <path class="cls-1" d="m646.03,148.91c-4.02-.06-7.77-.95-10.76-3.85-3.16-3.06-2.69-7.09,1.02-9.36,4.81-2.93,13.95-1.82,17.96,2.17,3.18,3.17,2.75,7-1.08,9.31-2.18,1.32-4.6,1.81-7.14,1.72Z"/>
  <path class="cls-1" d="m88.09,114.28c-.04,6.18-6.37,13.37-12.54,14.27-3.46.5-6.3-2.06-6.34-5.71-.06-6.02,6.08-13.4,12.02-14.44,4.13-.72,6.88,1.64,6.85,5.88Z"/>
  <path class="cls-1" d="m539.82,53.07c4.32,0,7.93,1.03,10.93,3.7,3.55,3.16,3.06,7.29-1.09,9.62-4.85,2.73-13.12,1.83-17.3-1.88-3.85-3.43-3.25-7.84,1.42-10.12,2.01-.98,4.15-1.4,6.03-1.31Z"/>
  <path class="cls-1" d="m775.03,11.12c-.05,6.34-6.14,13.38-12.4,14.33-3.29.5-6.01-1.7-6.3-5.1-.54-6.36,6.06-14.4,12.45-15.16,3.86-.46,6.28,1.84,6.25,5.93Z"/>
  <path class="cls-1" d="m864.03,122.2c-3.26.03-5.33-1.91-5.58-5.22-.48-6.46,6.52-14.49,12.99-14.9,3.3-.21,5.4,1.58,5.82,4.95.81,6.54-6.65,15.1-13.23,15.16Z"/>
  <path class="cls-1" d="m288.46,1.52c3.79-.02,6.03,2.43,5.7,6.24-.52,5.95-7.43,12.78-13.38,13.21-3.93.28-6.38-2.09-6.22-6.04.25-6.37,7.5-13.37,13.9-13.4Z"/>
  <path class="cls-1" d="m306.26,49.67c3.36.18,7.38,1.17,10.36,4.58,2.34,2.69,2,5.73-.79,7.97-5.11,4.13-15.86,2.69-19.75-2.65-1.91-2.63-1.37-5.78,1.35-7.76,1.86-1.35,4.83-2.16,8.83-2.14Z"/>
  <path class="cls-1" d="m242.61,158.55c3.54-.04,6.83.8,9.7,2.91,2,1.48,3.51,3.33,3.13,6.02-.37,2.68-2.33,4.17-4.63,4.99-5.27,1.9-10.35,1.24-15.03-1.82-2.17-1.42-3.76-3.37-3.4-6.16.35-2.67,2.35-4,4.63-5,1.79-.78,3.7-.87,5.6-.94Z"/>
  <path class="cls-1" d="m946.52,14.23c0-6.01,6.33-13.3,12.26-14.15,3.82-.54,6.3,1.49,6.51,5.34.33,5.98-5.75,13.62-11.63,14.62-4.44.76-7.14-1.45-7.14-5.82Z"/>
  <path class="cls-1" d="m104.69,169.3c-2.98.11-5.98-.74-8.6-2.67-3.61-2.66-3.54-6.94.08-9.58,4.75-3.46,13.55-3.17,18.05.58,3.48,2.9,3.39,6.65-.29,9.34-2.66,1.95-5.74,2.46-9.25,2.33Z"/>
  <path class="cls-1" d="m225.74,110.46c4.02-.05,6.19,2.35,5.76,6.37-.63,6-7.17,12.48-13.17,13.06-3.83.37-6.58-2.14-6.44-5.88.23-6.3,7.55-13.47,13.84-13.54Z"/>
  <path class="cls-1" d="m400.09,93.35c-3.77,0-6.09-2.73-5.6-6.62.69-5.54,6.65-11.78,12.15-12.72,4.59-.79,7.51,1.55,7.36,5.89-.22,6.19-7.72,13.45-13.9,13.46Z"/>
  <path class="cls-1" d="m791.98,51.61c3.54,0,6.83.81,9.54,3.19,2.99,2.62,2.84,6.34-.24,8.83-4.7,3.8-14.22,3.53-18.69-.53-3.01-2.73-2.95-6.28.24-8.82,2.67-2.13,5.84-2.66,9.15-2.67Z"/>
  <path class="cls-1" d="m22.61,242.68c-3.25,0-5.34-2.01-5.54-5.28-.39-6.38,6.41-14.23,12.81-14.8,3.32-.29,5.68,1.64,6.13,5.01.83,6.35-6.93,15.09-13.39,15.07Z"/>
</svg>